name rise44.8762peak52.3436fall86.788.mot
datacolumns 19
datarows 11
range 14.66329100000000 14.67994400000000
endheader
time	ground_force1_vx	ground_force1_vy	ground_force1_vz	ground_force1_px	ground_force1_py	ground_force1_pz	ground_force2_vx	ground_force2_vy	ground_force2_vz	ground_force2_px	ground_force2_py	ground_force2_pz	ground_torque1_x	ground_torque1_y	ground_torque1_z	ground_torque2_x	ground_torque2_y	ground_torque2_z	
14.66329100000000	-8.71651400000000	41.29843500000000	-10.80828300000000	0.25024300000000	0.00000000000000	0.09695300000000	-49.24198000000000	782.38299900000004	-57.55908000000000	0.06863800000000	0.00000000000000	-0.08795200000000	0.00000000000000	-5.43421200000000	0.00000000000000	0.00000000000000	-13.83396000000000	0.00000000000000	
14.66494500000000	-9.52859300000000	48.42997600000000	-12.16420400000000	0.25738800000000	0.00000000000000	0.09816400000000	-49.77606600000000	779.73998200000005	-57.21072300000000	0.06790000000000	0.00000000000000	-0.08784800000000	0.00000000000000	-6.24680100000000	0.00000000000000	0.00000000000000	-13.79997700000000	0.00000000000000	
14.66661200000000	-10.16657700000000	55.65856000000000	-13.39944700000000	0.26388200000000	0.00000000000000	0.09925400000000	-50.32277000000000	776.99530900000002	-56.84140700000000	0.06716900000000	0.00000000000000	-0.08773900000000	0.00000000000000	-7.02304000000000	0.00000000000000	0.00000000000000	-13.76929700000000	0.00000000000000	
14.66827600000000	-10.60632300000000	62.89191300000000	-14.48518900000000	0.26982600000000	0.00000000000000	0.10024500000000	-50.88174000000000	774.14733799999999	-56.45099100000000	0.06644900000000	0.00000000000000	-0.08762500000000	0.00000000000000	-7.74564200000000	0.00000000000000	0.00000000000000	-13.74193700000000	0.00000000000000	
14.66994000000000	-10.83357500000000	70.06022200000000	-15.40213000000000	0.27529800000000	0.00000000000000	0.10115000000000	-51.45254900000000	771.19434799999999	-56.03935100000000	0.06573800000000	0.00000000000000	-0.08750600000000	0.00000000000000	-8.40179800000000	0.00000000000000	0.00000000000000	-13.71789300000000	0.00000000000000	
14.67161000000000	-10.84379900000000	77.11831900000000	-16.14064300000000	0.28036100000000	0.00000000000000	0.10198200000000	-52.03469000000000	768.13454200000001	-55.60638300000000	0.06503800000000	0.00000000000000	-0.08738200000000	0.00000000000000	-8.98349100000000	0.00000000000000	0.00000000000000	-13.69714500000000	0.00000000000000	
14.67327400000000	-10.64125500000000	84.04546999999999	-16.70009900000000	0.28506800000000	0.00000000000000	0.10275200000000	-52.62757900000000	764.96605399999999	-55.15200500000000	0.06435000000000	0.00000000000000	-0.08725400000000	0.00000000000000	-9.48737600000000	0.00000000000000	0.00000000000000	-13.67965100000000	0.00000000000000	
14.67493900000000	-10.23751400000000	90.84319300000000	-17.08757800000000	0.28946100000000	0.00000000000000	0.10346800000000	-53.23054700000000	761.68695000000002	-54.67615700000000	0.06367300000000	0.00000000000000	-0.08712000000000	0.00000000000000	-9.91429000000000	0.00000000000000	0.00000000000000	-13.66535100000000	0.00000000000000	
14.67661400000000	-9.64962800000000	97.53161400000000	-17.31617200000000	0.29357500000000	0.00000000000000	0.10413700000000	-53.84284900000000	758.29523400000005	-54.17880200000000	0.06301000000000	0.00000000000000	-0.08698100000000	0.00000000000000	-10.26850500000000	0.00000000000000	0.00000000000000	-13.65416700000000	0.00000000000000	
14.67828100000000	-8.89817100000000	104.14493100000000	-17.40308200000000	0.29744000000000	0.00000000000000	0.10476400000000	-54.46365400000000	754.78885200000002	-53.65993100000000	0.06235900000000	0.00000000000000	-0.08683700000000	0.00000000000000	-10.55681700000000	0.00000000000000	0.00000000000000	-13.64599800000000	0.00000000000000	
14.67994400000000	-8.00534200000000	110.72651000000000	-17.36772500000000	0.30108000000000	0.00000000000000	0.10535400000000	-55.09205200000000	751.16570100000001	-53.11956100000000	0.06172100000000	0.00000000000000	-0.08668800000000	0.00000000000000	-10.78759700000000	0.00000000000000	0.00000000000000	-13.64072600000000	0.00000000000000	
